<svg xmlns="http://www.w3.org/2000/svg" version="1.1" xmlns:xlink="http://www.w3.org/1999/xlink" xmlns:svgjs="http://svgjs.dev/svgjs" width="100.1" height="100.6"><svg id="SvgjsSvg1013" xmlns="http://www.w3.org/2000/svg" version="1.1" viewBox="0 0 100.1 100.6">
  <!-- Generator: Adobe Illustrator 29.0.1, SVG Export Plug-In . SVG Version: 2.1.0 Build 192)  -->
  <g id="SvgjsG1012">
    <path d="M92.4,14.5c-.5,1-1.7,3.4-1.8,4.8s.9,4.5,1.3,5.6,1.7,7.7,2.7,11.4c1,3.8.3,7-.6,12.1-1.1,6.6-6.8,11.3-7.3,11.9-.5.7-1.5,2.7-1.5,2.7l-.3-.6s-.2.4-.6.8c-.3.4-1.3,1-1.3,1l-.3-.5-1.6,2.2-.2-.5-.3,1-.3-.8c-.3.4-.6,2.4-.3,3.3s-.4,2-.6,2.3c-.3.3-.7.4-.6.7s4,9.3,4.5,9.6,1.7.6,2.4.6,1.5,0,1.5,0c0,0,1.4-.5,2.1.6-.5-.4-1.5,0-1.5,0,0,0,1.7-.2,1.7,1.2-.6-.6-1.3-.4-1.3-.4,0,0,0,.3-.6.3s-5.4,0-6.6-.3c0,.4.9.8,1.5.9s1.8.2,3.2-.2c1.5-.5,1.9.8,1.9.8,0,0-.4-.4-1.4,0,1.1-.2,2.2.5,1.9,1.2-.7-.6-1.5-.3-1.5-.3,0,0,0,0-.4.3s-1,0-2.2,0-7.4-.3-8.3-.3-.7,0-1-.7c-.5,0-1.9.5-1.9.5.6-1.2,1.8-1.1,1.8-1.1,0,0,3-.2,3.4-.3.5,0,.5-.4.5-.4h-1.8c-.3,0-.7,0-1.7.2.4-.6,1.2-.7,1.7-.8s1.5-.3,1.7-.4c0,0,0-.5,0-.5,0,0-1.3-4.9-2.6-7.1-1.3-2.3-1.8-4.1-1.9-5.1s.7-2.3,1.1-2.7c.3-.4.2-.7,0-.7s-.8,0-.8,0c0,0,0-.4-.2-.5-.3,0-.8.2-.8.2,0,0,0-.5-.5-.5s-1.1.3-1.1.3c0,0,.3-.6,0-.6s-1.1.2-1.1.2c0,0,0-.3,0-.3-.2,0-.6,0-.6,0,0,0,0-.3-.4-.4-.3,0-1.8-.3-5.1-1.5-3.4-1.1-11.2-.6-11.2-.6,0,0-1.1.7-2,1.2s-1.5.4-1.5.4c0,0-4.9,2.4-6.3,3.1-1.5.7-2.1.5-2.1.5,0,0-2.4,1.7-3.6,2.2s-2.2.6-2.2.6c0,0-2.9,1.7-3.6,2.1s-1.7.5-1.7.5c0,0-2.5,1.2-3.3,1.7-.8.4-1.2,0-1.2,0,0,0-2.1,1.5-3.2,2.1s-2,.2-2,.2c0,0-.4,0-.9.6s-1,.2-1,.2c0,0-8.9,4.9-10.3,5.7s-1.9.4-2.7.2c-.7-.2-.3-1.6.3-1.9.6-.3,37.1-18.5,41.7-20.1,2.1-1.6,3.5-3,6.2-4,2.6-3,6.9-7,9.1-8.7,2.2-1.6,5-4,9.2-9s6-5,6.8-6.3c.9-1.3.5-3,.2-4.6-.2-1.7,0-3,.2-5.4s2.1-3.9,3-5.1c.8-1.2,3.7-1.9,4.2-2.3.5-.3,1.2-.6,1.8-1.3.5-.6,2.4-3.8,5.3-4.1-.3,1.3-.6,2-1,2.8h0ZM77.6,74.9c0,.3,2.2,6.5,2.5,7.2s.6.2.9-.3c.4-.5-.5-1.8-.7-2.5-.2-.8-2.7-6-2.7-6,0,0-.4,0-.5.3,0,.2.4,1,.5,1.3ZM74,48.8c2.8,0,5.4-.3,8.3-1.7,2-1,5-3.4,5-3.4,0,0,1.5.9-.9,3.4-6,6.3-13.1,6.9-13.5,7.3-1.1.9-3.6,4.4-3.3,6.9.2,1.7,2.2,2.6,5.1,3.2,3.4.7,6.8-.8,8.8-2.5,2.3-1.8,8-7.5,8.2-9.8,0-.7-2-8.1-3.5-11.3-1.6-3.1-2-2.6-6-1.8-4,.9-12.6,7.7-15.5,9.8h1.8c.2,0,1.3-.2,1.3-.2,0,0,0,0,.2,0s1.2,0,1.2,0c0,0,0,0,.4,0s1,0,1,0c0,0,0,0,.3,0s.8,0,.8,0c0,0,0,0,.3,0ZM86.5,20.9c-.5,0-.9.4-.9.9s.4.9.9.9.9-.4.9-.9c0-.5-.5-.9-.9-.9Z"></path>
  </g>
</svg><style>@media (prefers-color-scheme: light) { :root { filter: none; } }
@media (prefers-color-scheme: dark) { :root { filter: invert(100%); } }
</style></svg>